<svg width="440" height="11" fill="none" xmlns="http://www.w3.org/2000/svg"><path d="M17.25 5.55C2.169-6.862 0 5.45 0 5.45c3.056 12.513 17.25.1 17.25.1zM4.041 4.945c.296 0 .592.303.592.605 0 .303-.296.505-.592.505-.295 0-.591-.202-.591-.505 0-.403.296-.605.591-.605zm1.578.605c6.9-3.633 7.885 0 7.885 0-1.38 3.734-7.885 0-7.885 0z" fill="#333"/><path d="M18.433 7.165c.887 0 1.577-.706 1.577-1.614 0-.909-.69-1.615-1.577-1.615s-1.577.706-1.577 1.615c0 .908.69 1.614 1.577 1.614zm12.223.101c.887 0 1.577-.706 1.577-1.615 0-.908-.69-1.614-1.577-1.614s-1.577.706-1.577 1.614c0 .909.69 1.615 1.577 1.615z" fill="#333"/><path d="M24.544 9.89l-5.421-4.34 5.421-4.339c.592 1.413 5.422 4.34 5.422 4.34.098.1-4.83 2.926-5.422 4.339zM440 5.55s-1.479-7.972-11.237 0c0 0 9.266 8.175 11.237 0zm-2.267 0c0 .202-.197.404-.394.404-.198 0-.395-.202-.395-.403 0-.202.197-.404.395-.404.197 0 .394.202.394.404zm-6.506 0s.592-2.422 5.126 0c0 0-4.239 2.423-5.126 0z" fill="#333"/><path d="M427.974 6.66c-.591 0-1.084-.504-1.084-1.009 0-.605.493-1.11.986-1.11.591 0 1.084.505 1.084 1.01.099.605-.394 1.11-.986 1.11z" fill="#333"/><path d="M426.989 5.046H30.656v1.11h396.333v-1.11z" fill="#333"/></svg>