<svg width="440" height="11" fill="none" xmlns="http://www.w3.org/2000/svg"><path d="M440 5.45s-2.169-12.312-17.25.1c0 0 14.194 12.413 17.25-.1zm-3.45.1c0 .303-.296.606-.591.606-.296 0-.592-.303-.592-.606 0-.302.296-.605.592-.605.295 0 .591.202.591.605zm-10.153 0s.986-3.733 7.886 0c.098 0-6.407 3.734-7.886 0z" fill="#333"/><path d="M421.567 7.165c-.887 0-1.577-.706-1.577-1.615 0-.908.69-1.614 1.577-1.614s1.577.706 1.577 1.614c0 .909-.69 1.615-1.577 1.615zm-12.223.101c-.887 0-1.577-.706-1.577-1.615 0-.908.69-1.614 1.577-1.614s1.577.706 1.577 1.614c0 .909-.69 1.615-1.577 1.615z" fill="#333"/><path d="M415.456 9.89l5.421-4.34-5.421-4.339c-.592 1.413-5.422 4.34-5.422 4.34-.098.1 4.83 2.926 5.422 4.339zM11.237 5.55C1.38-2.522 0 5.55 0 5.55c1.971 8.175 11.237 0 11.237 0zm-8.674-.403c.197 0 .394.202.394.404 0 .201-.197.403-.394.403s-.394-.202-.394-.403c0-.202.197-.404.394-.404zm1.084.404c4.534-2.422 5.126 0 5.126 0-.986 2.422-5.126 0-5.126 0z" fill="#333"/><path d="M11.927 6.66c.592 0 1.085-.504 1.085-1.009 0-.605-.493-1.11-.986-1.11-.592 0-1.085.505-1.085 1.01 0 .605.395 1.11.986 1.11zm397.516-1.614H13.012v1.11h396.431v-1.11z" fill="#333"/></svg>