<svg width="1380" height="41" fill="none" xmlns="http://www.w3.org/2000/svg"><path d="M693.844 28.255s.197.1.592.396c.394.296.985.691 1.774 1.284 1.577 1.087 3.844 2.667 6.999 4.347a44.71 44.71 0 005.322 2.569c.986.395 2.07.79 3.155 1.185 1.084.395 2.267.692 3.548.988 1.183.297 2.465.494 3.845.692 1.281.197 2.661.296 4.14.296h2.168c.394 0 .69 0 1.084-.099.395 0 .789-.098 1.085-.098 1.478-.1 3.055-.396 4.534-.692a27.033 27.033 0 004.633-1.284 37.577 37.577 0 004.534-2.075c.69-.395 1.479-.89 2.07-1.482.69-.494 1.282-1.087 1.972-1.778 1.182-1.285 2.267-2.668 2.957-4.347.788-1.581 1.183-3.36 1.38-5.236v-2.866a13.881 13.881 0 00-.592-2.766 20.062 20.062 0 00-1.084-2.569 12.923 12.923 0 00-1.676-2.37 10.288 10.288 0 00-2.07-2.075 53.115 53.115 0 00-2.464-1.779c-1.676-1.086-3.647-1.976-5.619-2.568-1.971-.692-4.041-1.087-6.21-1.285-2.168-.197-4.337-.197-6.505.1-2.169.296-4.337.69-6.506 1.382-4.239 1.383-8.379 3.458-12.519 5.73-4.041 2.371-8.082 4.94-12.321 7.41a52.846 52.846 0 00-3.154 1.877 52.867 52.867 0 00-3.155 1.877c-2.07 1.186-4.14 2.47-6.21 3.656-4.14 2.37-8.28 4.643-12.518 6.619-2.07.988-4.239 1.877-6.407 2.569-2.169.691-4.337 1.383-6.605 1.778a38.414 38.414 0 01-6.702.593h-.888c-.295 0-.591 0-.788-.1h-.789c-.295 0-.591-.098-.788-.098l-.395-.099c-.098 0-.295-.098-.394-.098-.296-.1-.493-.1-.788-.198-.493-.099-1.085-.296-1.578-.395a9.702 9.702 0 01-1.577-.494l-.394-.099c-.099-.099-.296-.099-.394-.198-.296-.098-.493-.197-.789-.296-.296-.099-.493-.198-.69-.395-.197-.099-.493-.297-.69-.395-.197-.1-.493-.297-.69-.395l-.591-.297c-.099 0-.099-.099-.197-.099-.198-.197-.395-.296-.69-.494l-.296-.296-.296-.296c-.197-.198-.394-.396-.591-.494l-.592-.593-.295-.297a82.661 82.661 0 01-.296-.296c-.197-.198-.296-.395-.493-.593-.197-.197-.296-.395-.493-.691l-.197-.297c-.099-.099-.099-.197-.197-.296-.099-.198-.296-.494-.394-.692-.099-.197-.198-.494-.296-.691l-.197-.395c-.099-.1-.099-.198-.099-.396-.098-.197-.197-.494-.296-.691-.098-.297-.098-.494-.197-.79l-.098-.396c0-.099-.099-.296-.099-.395-.098-.296-.098-.494-.197-.79 0-.297-.099-.494-.099-.79l-.098-.396v-.395c0-.296 0-.494-.099-.79v-2.371c0-.297.099-.494.099-.692v-.79c0-.198.098-.494.098-.692.789-3.853 2.563-7.31 5.126-9.88 1.282-1.284 2.662-2.37 4.042-3.358.394-.198.69-.494 1.084-.692.394-.198.69-.395 1.084-.593a16.05 16.05 0 012.267-1.087c1.479-.691 2.957-1.185 4.535-1.58.394-.099.788-.198 1.084-.297.394-.098.788-.197 1.084-.197.394-.099.789-.099 1.084-.198.395 0 .69-.099 1.085-.099.394 0 .69-.098 1.084-.098h4.239c.295 0 .69.098.985.098.296 0 .69.1.986.1.296.098.69.098.986.197 2.563.494 4.83 1.284 6.801 2.074 1.972.89 3.746 1.878 5.323 2.767 3.056 1.976 5.126 3.853 6.407 5.137l1.479 1.482c.295.395.493.494.493.494l-.493-.494c-.395-.296-.887-.89-1.577-1.482-1.38-1.284-3.549-3.063-6.605-4.94-1.577-.889-3.253-1.778-5.323-2.568a31.492 31.492 0 00-6.702-1.877c-.296-.1-.592-.1-.986-.1-.296 0-.592-.098-.986-.098-.296 0-.69-.099-.986-.099h-4.041c-.394 0-.69 0-1.084.099-.395 0-.69.099-1.085.099-.394.099-.69.099-1.084.197-.394.1-.69.1-1.084.198-.394.099-.69.198-1.084.296-1.479.396-2.859.89-4.338 1.581-2.858 1.284-5.52 3.26-7.984 5.631-.296.297-.591.593-.788.988-.099.198-.296.297-.395.494-.098.198-.197.396-.394.494l-.197.297c-.099.098-.099.197-.197.296l-.296.593-.296.593-.295.592c-.198.396-.395.79-.493 1.186-.099.197-.197.395-.197.593-.099.197-.099.395-.198.592l-.197.593c-.098.198-.098.395-.197.692-.098.197-.098.395-.098.691 0 .198-.099.395-.099.692 0 .197-.099.494-.099.691v.692c0 .198-.098.494-.098.692v2.074c0 .198 0 .494.098.692v.296l.099.297c0 .197.099.494.099.691.098.198.098.494.197.692 0 .099 0 .197.098.296l.099.297c.098.197.098.493.197.691.099.198.197.395.296.692 0 .098.098.197.098.296l.197.296.296.593c.099.198.197.395.394.593.099.099.099.198.198.296l.197.297c.098.197.295.395.394.593.197.197.296.395.493.592.098.1.197.198.197.297l.296.296.493.494c.197.198.394.296.591.494l.296.198c.098.098.197.098.295.197.198.099.395.297.592.395l.098.1.198.098.295.198c.197.098.395.296.592.395.197.099.394.197.69.296.197.099.394.198.69.297.197.098.493.197.69.296.098 0 .197.099.394.099l.394.099c.493.197.986.296 1.479.395.493.099.986.296 1.478.395.296 0 .493.099.789.099.099 0 .296.099.394.099h.395c.295 0 .492.098.788.098h.789c.295 0 .493 0 .788.1h.789c2.07 0 4.238-.198 6.308-.594a37.727 37.727 0 006.309-1.778c2.07-.692 4.14-1.58 6.21-2.569 4.14-1.877 8.181-4.15 12.223-6.52 2.07-1.186 4.041-2.47 6.111-3.656.986-.592 2.07-1.284 3.155-1.877 1.084-.593 2.07-1.185 3.154-1.778 4.14-2.47 8.181-5.039 12.42-7.41 4.14-2.37 8.477-4.544 12.913-5.927a40.85 40.85 0 016.9-1.482c2.267-.198 4.633-.297 6.9 0 2.267.197 4.534.79 6.604 1.482 2.07.691 4.14 1.68 6.013 2.865.887.592 1.774 1.284 2.661 1.976a17.27 17.27 0 012.267 2.37c.69.791 1.282 1.779 1.775 2.668.493.988.887 1.976 1.183 2.964.295.988.492 2.075.591 3.063v2.37c0 .297 0 .495-.099.791-.197 2.075-.69 3.952-1.577 5.73a18.065 18.065 0 01-3.351 4.644 16.57 16.57 0 01-2.07 1.778 11.2 11.2 0 01-2.267 1.482 30.164 30.164 0 01-4.83 2.173c-1.577.494-3.253.89-4.83 1.186a38.702 38.702 0 01-4.732.593c-.394 0-.788.098-1.183.098h-3.252c-1.479-.098-2.859-.197-4.239-.395-1.38-.197-2.661-.494-3.844-.79-1.282-.296-2.366-.692-3.549-1.087-1.084-.395-2.168-.79-3.154-1.284-1.972-.89-3.746-1.877-5.323-2.767a55.307 55.307 0 01-6.801-4.643c-.789-.593-1.282-.988-1.676-1.284-.592.296-.789.197-.789.197z" fill="#333"/><path d="M717.206 13.337s-.197 0-.493.1c-.197 0-.394.098-.69.098-.296 0-.592.099-.887.197-1.282.297-3.253.692-5.422 1.581-2.267.79-4.83 2.075-7.59 3.557-2.76 1.58-5.717 3.458-8.871 5.335-1.577.988-3.154 1.877-4.633 2.766-.789.395-1.479.89-2.267 1.284-.69.396-1.479.79-2.169 1.186-2.76 1.482-5.323 2.964-7.491 4.05-.296.1-.493.297-.789.396-.295.099-.493.296-.788.395-.493.198-.986.494-1.38.692-.887.395-1.676.79-2.267.987-1.282.494-1.972.79-1.972.79s.69-.394 1.774-1.086c.592-.395 1.282-.79 2.07-1.284.395-.297.789-.593 1.282-.89.197-.197.493-.296.69-.493.197-.198.493-.297.69-.494.986-.692 2.07-1.482 3.253-2.273.591-.395 1.183-.79 1.873-1.284.591-.395 1.281-.89 1.971-1.284.69-.396 1.38-.89 2.07-1.285.69-.395 1.479-.889 2.169-1.284 1.478-.89 2.957-1.877 4.534-2.865 3.154-1.976 6.21-3.754 9.167-5.137 2.957-1.384 5.717-2.371 8.083-2.964a32.59 32.59 0 015.717-.89h1.577c.592.1.789.1.789.1zm-5.52-7.804s-.197 0-.493.098c-.197 0-.394.1-.69.1-.296 0-.592.098-.887.197-1.282.296-3.253.691-5.422 1.58-2.267.79-4.83 2.075-7.59 3.557-2.76 1.58-5.717 3.458-8.871 5.335-1.577.988-3.154 1.877-4.633 2.766-.789.395-1.479.89-2.267 1.285-.69.395-1.479.79-2.169 1.185-2.76 1.482-5.323 2.964-7.491 4.05-.296.1-.493.297-.789.396-.295.099-.493.296-.788.395-.493.198-.986.494-1.38.692-.887.395-1.676.79-2.267.988-1.282.494-1.972.79-1.972.79s.69-.395 1.774-1.087c.592-.395 1.282-.79 2.07-1.284.395-.297.789-.593 1.282-.89.197-.197.493-.296.69-.493.197-.198.493-.297.69-.494.986-.692 2.07-1.482 3.253-2.273.591-.395 1.183-.79 1.873-1.284.591-.395 1.281-.889 1.971-1.284.69-.395 1.38-.89 2.07-1.285.69-.395 1.479-.889 2.169-1.284 1.478-.889 2.957-1.877 4.534-2.865 3.154-1.976 6.21-3.754 9.167-5.137 2.957-1.383 5.717-2.371 8.083-2.964a32.604 32.604 0 015.717-.89h1.577c.592.1.789.1.789.1zM1380 23.02s-2.56-14.128-20.31.098c0 0 16.66 14.325 20.31-.099zm-4.04.098c0 .395-.3.692-.69.692-.4 0-.69-.297-.69-.692a.67.67 0 01.69-.691c.39 0 .69.296.69.691zm-11.83 0s1.18-4.248 9.27 0c0 0-7.59 4.347-9.27 0z" fill="#333"/><path d="M1358.41 25.094c-.98 0-1.87-.79-1.87-1.877 0-.988.79-1.877 1.87-1.877.99 0 1.88.79 1.88 1.877 0 .988-.89 1.877-1.88 1.877zm-14.39 0c-.98 0-1.87-.79-1.87-1.877 0-.988.79-1.877 1.87-1.877.99 0 1.87.79 1.87 1.877s-.78 1.877-1.87 1.877z" fill="#333"/><path d="M1351.22 28.157s6.4-4.94 6.31-4.94c.09 0-6.41-4.94-6.41-4.94-.79 1.58-6.41 4.94-6.31 4.94-.1.099 5.62 3.359 6.41 4.94zm-614.399-5.039c-11.532-9.287-13.208-.099-13.208-.099 2.366 9.485 13.208.1 13.208.1zm-10.152-.395c.197 0 .394.198.394.395a.424.424 0 01-.394.395.424.424 0 01-.395-.395c0-.197.197-.395.395-.395zm1.281.395c5.323-2.766 6.013 0 6.013 0-1.084 2.865-6.013 0-6.013 0z" fill="#333"/><path d="M737.709 24.402c.69 0 1.182-.494 1.182-1.185 0-.692-.492-1.186-1.182-1.186s-1.183.494-1.183 1.186c-.099.691.493 1.185 1.183 1.185zm606.311-1.778H738.891v1.284h605.129v-1.284zm-1323.714.494C2.563 8.892 0 23.02 0 23.02c3.647 14.424 20.306.1 20.306.1zM4.73 22.427c.395 0 .69.296.69.691a.674.674 0 01-.69.692.674.674 0 01-.69-.692c0-.395.296-.691.69-.691zm1.873.691c8.083-4.248 9.266 0 9.266 0-1.676 4.347-9.266 0-9.266 0z" fill="#333"/><path d="M21.587 25.094c.986 0 1.873-.79 1.873-1.877a1.874 1.874 0 10-3.746 0c0 .988.887 1.877 1.873 1.877zm14.392 0c.985 0 1.872-.79 1.872-1.877a1.874 1.874 0 10-3.745 0c0 1.087.788 1.877 1.873 1.877z" fill="#333"/><path d="M28.783 28.157s-6.407-4.94-6.309-4.94c-.098 0 6.407-4.94 6.407-4.94.789 1.58 6.408 4.94 6.309 4.94.099.099-5.619 3.359-6.407 4.94zm627.604-5.039s-1.676-9.188-13.208.099c0-.099 10.842 9.287 13.208-.099zm-2.661 0a.424.424 0 01-.395.395.424.424 0 01-.394-.395c0-.197.197-.395.394-.395.198 0 .395.198.395.395zm-7.689.099s.789-2.766 6.013 0c0-.099-4.929 2.766-6.013 0z" fill="#333"/><path d="M642.291 24.402c-.69 0-1.182-.494-1.182-1.185 0-.692.492-1.186 1.182-1.186s1.183.494 1.183 1.186c.099.691-.493 1.185-1.183 1.185zm-1.182-1.778H35.979v1.284h605.13v-1.284z" fill="#333"/></svg>