<svg width="32" height="32" xmlns="http://www.w3.org/2000/svg"><path d="M14.632 21.348c-2.041-.213-3.883-.72-5.459-1.961-.196-.155-.398-.304-.576-.476-.69-.667-.76-1.432-.213-2.219.467-.675 1.25-.855 2.065-.467.158.074.307.168.452.268 2.938 2.032 6.974 2.088 9.922.092.293-.226.605-.41.966-.504.704-.181 1.36.079 1.738.699.432.707.426 1.4-.106 1.948-.814.844-1.796 1.453-2.885 1.879-1.03.402-2.16.605-3.276.738.168.186.248.276.353.383 1.516 1.533 3.04 3.063 4.552 4.601.515.526.623 1.175.339 1.786-.31.666-1.004 1.105-1.685 1.058-.431-.03-.767-.246-1.067-.549-1.144-1.16-2.31-2.299-3.43-3.48-.327-.344-.485-.279-.773.02a224.317 224.317 0 01-3.498 3.537c-.528.524-1.158.619-1.771.32-.65-.32-1.067-.988-1.033-1.661.021-.456.244-.803.554-1.115 1.502-1.509 2.998-3.022 4.495-4.533.099-.101.192-.208.336-.364z"/><path d="M15.876 16.092c-3.643-.013-6.63-3.053-6.61-6.728.022-3.715 3.011-6.707 6.69-6.697 3.685.009 6.644 3.046 6.627 6.8-.02 3.666-3.027 6.637-6.707 6.625zm3.31-6.72a3.26 3.26 0 00-5.585-2.303 3.263 3.263 0 00-.937 2.344 3.26 3.26 0 003.283 3.254 3.253 3.253 0 003.24-3.294v-.001z"/></svg>