<svg width="32" height="32" xmlns="http://www.w3.org/2000/svg"><path d="M28.772 9.14c.187-.62 0-1.075-.883-1.075h-2.924c-.744 0-1.084.394-1.27.826 0 0-1.487 3.625-3.594 5.976-.68.684-.99.9-1.361.9-.185 0-.455-.216-.455-.836V9.14c0-.744-.214-1.075-.834-1.075h-4.595c-.464 0-.744.344-.744.672 0 .704 1.053.867 1.161 2.851v4.304c0 .943-.169 1.115-.542 1.115-.991 0-3.402-3.639-4.832-7.804-.279-.81-.56-1.136-1.307-1.136H3.669c-.836 0-1.002.393-1.002.825 0 .776.99 4.616 4.614 9.695 2.416 3.468 5.818 5.348 8.916 5.348 1.858 0 2.087-.418 2.087-1.138v-2.621c0-.835.177-1.003.765-1.003.432 0 1.176.219 2.911 1.89 1.981 1.981 2.31 2.87 3.423 2.87h2.922c.835 0 1.252-.417 1.012-1.241-.262-.82-1.209-2.013-2.465-3.425-.683-.806-1.703-1.672-2.013-2.106-.434-.558-.308-.805 0-1.301.001.001 3.562-5.015 3.933-6.72z"/></svg>