<svg width="32" height="32" xmlns="http://www.w3.org/2000/svg"><path fill-rule="evenodd" clip-rule="evenodd" d="M24.537 7.51A11.89 11.89 0 0016.071 4C9.473 4 4.103 9.37 4.1 15.97c0 2.109.55 4.167 1.597 5.983L4 28.155l6.345-1.666a11.975 11.975 0 005.72 1.458h.006c6.596 0 11.966-5.37 11.969-11.97a11.902 11.902 0 00-3.503-8.466zm-8.466 18.417h-.004a9.93 9.93 0 01-5.064-1.388l-.363-.216-3.765.988 1.004-3.671-.236-.376a9.93 9.93 0 01-1.522-5.295c.003-5.485 4.466-9.948 9.954-9.948a9.883 9.883 0 017.033 2.918 9.89 9.89 0 012.91 7.038c-.002 5.486-4.465 9.95-9.947 9.95zm5.457-7.452c-.3-.151-1.77-.874-2.044-.974-.273-.1-.472-.149-.672.15-.2.298-.773.972-.948 1.172-.175.2-.35.224-.648.074-.299-.149-1.263-.465-2.405-1.484-.89-.793-1.49-1.772-1.664-2.072-.175-.3-.019-.461.132-.61.134-.134.298-.35.448-.524.149-.175.198-.299.298-.499.1-.2.051-.375-.025-.524-.075-.15-.673-1.623-.923-2.221-.241-.58-.488-.503-.672-.511a12.83 12.83 0 00-.572-.01 1.101 1.101 0 00-.798.373c-.275.3-1.047 1.022-1.047 2.494 0 1.472 1.072 2.895 1.221 3.095.15.2 2.11 3.22 5.11 4.516.714.308 1.272.492 1.705.63.716.229 1.368.195 1.884.12.575-.086 1.77-.723 2.019-1.422.249-.699.249-1.297.174-1.423-.074-.125-.276-.201-.573-.35z"/></svg>