<svg width="440" height="11" viewBox="0 0 440 11" fill="none" xmlns="http://www.w3.org/2000/svg">
<path d="M17.25 5.55043C2.16857 -6.86241 0 5.44951 0 5.44951C3.05571 17.9633 17.25 5.55043 17.25 5.55043ZM4.04143 4.94493C4.33714 4.94493 4.63286 5.24768 4.63286 5.55043C4.63286 5.85318 4.33714 6.05502 4.04143 6.05502C3.74571 6.05502 3.45 5.85318 3.45 5.55043C3.45 5.14676 3.74571 4.94493 4.04143 4.94493ZM5.61857 5.55043C12.5186 1.9174 13.5043 5.55043 13.5043 5.55043C12.1243 9.28438 5.61857 5.55043 5.61857 5.55043Z" fill="#333333"/>
<path d="M18.4329 7.16518C19.32 7.16518 20.01 6.45875 20.01 5.5505C20.01 4.64224 19.32 3.93582 18.4329 3.93582C17.5457 3.93582 16.8557 4.64224 16.8557 5.5505C16.8557 6.45875 17.5457 7.16518 18.4329 7.16518Z" fill="#333333"/>
<path d="M30.6557 7.26609C31.5429 7.26609 32.2329 6.55967 32.2329 5.65141C32.2329 4.74316 31.5429 4.03674 30.6557 4.03674C29.7686 4.03674 29.0786 4.74316 29.0786 5.65141C29.0786 6.55967 29.7686 7.26609 30.6557 7.26609Z" fill="#333333"/>
<path d="M24.5443 9.88995L19.1229 5.5505L24.5443 1.21105C25.1357 2.6239 29.9657 5.5505 29.9657 5.5505C30.0643 5.65141 25.1357 8.4771 24.5443 9.88995Z" fill="#333333"/>
<path d="M440 5.5505C440 5.5505 438.521 -2.42198 428.763 5.5505C428.763 5.5505 438.029 13.7248 440 5.5505ZM437.733 5.5505C437.733 5.75233 437.536 5.95417 437.339 5.95417C437.141 5.95417 436.944 5.75233 436.944 5.5505C436.944 5.34866 437.141 5.14683 437.339 5.14683C437.536 5.14683 437.733 5.34866 437.733 5.5505ZM431.227 5.5505C431.227 5.5505 431.819 3.12848 436.353 5.5505C436.353 5.5505 432.114 7.97252 431.227 5.5505Z" fill="#333333"/>
<path d="M427.974 6.66059C427.383 6.66059 426.89 6.156 426.89 5.65141C426.89 5.04591 427.383 4.54132 427.876 4.54132C428.467 4.54132 428.96 5.04591 428.96 5.5505C429.059 6.156 428.566 6.66059 427.974 6.66059Z" fill="#333333"/>
<path d="M426.989 5.04591H30.6557V6.156H426.989V5.04591Z" fill="#333333"/>
</svg>
