<svg width="440" height="11" viewBox="0 0 440 11" fill="none" xmlns="http://www.w3.org/2000/svg">
<path d="M440 5.44957C440 5.44957 437.831 -6.86235 422.75 5.55049C422.75 5.55049 436.944 17.9633 440 5.44957ZM436.55 5.55049C436.55 5.85324 436.254 6.156 435.959 6.156C435.663 6.156 435.367 5.85324 435.367 5.55049C435.367 5.24774 435.663 4.94499 435.959 4.94499C436.254 4.94499 436.55 5.14682 436.55 5.55049ZM426.397 5.55049C426.397 5.55049 427.383 1.81655 434.283 5.55049C434.381 5.55049 427.876 9.28444 426.397 5.55049Z" fill="#333333"/>
<path d="M421.567 7.16517C420.68 7.16517 419.99 6.45875 419.99 5.55049C419.99 4.64223 420.68 3.93581 421.567 3.93581C422.454 3.93581 423.144 4.64223 423.144 5.55049C423.144 6.45875 422.454 7.16517 421.567 7.16517Z" fill="#333333"/>
<path d="M409.344 7.26609C408.457 7.26609 407.767 6.55967 407.767 5.65141C407.767 4.74315 408.457 4.03673 409.344 4.03673C410.231 4.03673 410.921 4.74315 410.921 5.65141C410.921 6.55967 410.231 7.26609 409.344 7.26609Z" fill="#333333"/>
<path d="M415.456 9.88994L420.877 5.55049L415.456 1.21105C414.864 2.62389 410.034 5.55049 410.034 5.55049C409.936 5.65141 414.864 8.4771 415.456 9.88994Z" fill="#333333"/>
<path d="M11.2372 5.55056C1.38003 -2.52284 0 5.55056 0 5.55056C1.97143 13.7249 11.2372 5.55056 11.2372 5.55056ZM2.5629 5.14689C2.76004 5.14689 2.95715 5.34872 2.95715 5.55056C2.95715 5.75239 2.76004 5.95423 2.5629 5.95423C2.36575 5.95423 2.16859 5.75239 2.16859 5.55056C2.16859 5.34872 2.36575 5.14689 2.5629 5.14689ZM3.64716 5.55056C8.18145 3.12854 8.77289 5.55056 8.77289 5.55056C7.78718 7.97258 3.64716 5.55056 3.64716 5.55056Z" fill="#333333"/>
<path d="M11.9272 6.66058C12.5186 6.66058 13.0115 6.156 13.0115 5.65141C13.0115 5.0459 12.5186 4.54132 12.0257 4.54132C11.4343 4.54132 10.9415 5.0459 10.9415 5.55049C10.9415 6.156 11.3358 6.66058 11.9272 6.66058Z" fill="#333333"/>
<path d="M409.443 5.0459H13.0115V6.156H409.443V5.0459Z" fill="#333333"/>
</svg>
