<svg width="1380" height="11" viewBox="0 0 1380 11" fill="none" xmlns="http://www.w3.org/2000/svg">
<path d="M1380 5.44957C1380 5.44957 1377.83 -6.86235 1362.75 5.55049C1362.75 5.55049 1376.94 17.9633 1380 5.44957ZM1376.55 5.55049C1376.55 5.85324 1376.25 6.156 1375.96 6.156C1375.66 6.156 1375.37 5.85324 1375.37 5.55049C1375.37 5.24774 1375.66 4.94499 1375.96 4.94499C1376.25 4.94499 1376.55 5.14682 1376.55 5.55049ZM1366.4 5.55049C1366.4 5.55049 1367.38 1.81655 1374.28 5.55049C1374.38 5.55049 1367.88 9.28444 1366.4 5.55049Z" fill="#333333"/>
<path d="M1361.57 7.16517C1360.68 7.16517 1359.99 6.45875 1359.99 5.55049C1359.99 4.64223 1360.68 3.93581 1361.57 3.93581C1362.45 3.93581 1363.14 4.64223 1363.14 5.55049C1363.14 6.45875 1362.45 7.16517 1361.57 7.16517Z" fill="#333333"/>
<path d="M1349.34 7.26609C1348.46 7.26609 1347.77 6.55967 1347.77 5.65141C1347.77 4.74315 1348.46 4.03673 1349.34 4.03673C1350.23 4.03673 1350.92 4.74315 1350.92 5.65141C1350.92 6.55967 1350.23 7.26609 1349.34 7.26609Z" fill="#333333"/>
<path d="M1355.46 9.88994L1360.88 5.55049L1355.46 1.21105C1354.86 2.62389 1350.03 5.55049 1350.03 5.55049C1349.94 5.65141 1354.86 8.4771 1355.46 9.88994Z" fill="#333333"/>
<path d="M951.237 5.55056C941.38 -2.52284 940 5.55056 940 5.55056C941.971 13.7249 951.237 5.55056 951.237 5.55056ZM942.563 5.14689C942.76 5.14689 942.957 5.34872 942.957 5.55056C942.957 5.75239 942.76 5.95423 942.563 5.95423C942.366 5.95423 942.169 5.75239 942.169 5.55056C942.169 5.34872 942.366 5.14689 942.563 5.14689ZM943.647 5.55056C948.181 3.12854 948.773 5.55056 948.773 5.55056C947.787 7.97258 943.647 5.55056 943.647 5.55056Z" fill="#333333"/>
<path d="M951.927 6.66058C952.519 6.66058 953.011 6.156 953.011 5.65141C953.011 5.0459 952.519 4.54132 952.026 4.54132C951.434 4.54132 950.941 5.0459 950.941 5.55049C950.941 6.156 951.336 6.66058 951.927 6.66058Z" fill="#333333"/>
<path d="M1349.44 5.0459H953.011V6.156H1349.44V5.0459Z" fill="#333333"/>
<path d="M17.25 5.55043C2.16857 -6.86241 0 5.44951 0 5.44951C3.05571 17.9633 17.25 5.55043 17.25 5.55043ZM4.04143 4.94493C4.33714 4.94493 4.63286 5.24768 4.63286 5.55043C4.63286 5.85318 4.33714 6.05502 4.04143 6.05502C3.74571 6.05502 3.45 5.85318 3.45 5.55043C3.45 5.14676 3.74571 4.94493 4.04143 4.94493ZM5.61857 5.55043C12.5186 1.9174 13.5043 5.55043 13.5043 5.55043C12.1243 9.28438 5.61857 5.55043 5.61857 5.55043Z" fill="#333333"/>
<path d="M18.4329 7.16518C19.32 7.16518 20.01 6.45875 20.01 5.5505C20.01 4.64224 19.32 3.93582 18.4329 3.93582C17.5457 3.93582 16.8557 4.64224 16.8557 5.5505C16.8557 6.45875 17.5457 7.16518 18.4329 7.16518Z" fill="#333333"/>
<path d="M30.6557 7.26609C31.5429 7.26609 32.2329 6.55967 32.2329 5.65141C32.2329 4.74316 31.5429 4.03674 30.6557 4.03674C29.7686 4.03674 29.0786 4.74316 29.0786 5.65141C29.0786 6.55967 29.7686 7.26609 30.6557 7.26609Z" fill="#333333"/>
<path d="M24.5443 9.88995L19.1229 5.5505L24.5443 1.21105C25.1357 2.6239 29.9657 5.5505 29.9657 5.5505C30.0643 5.65141 25.1357 8.4771 24.5443 9.88995Z" fill="#333333"/>
<path d="M440 5.5505C440 5.5505 438.521 -2.42198 428.763 5.5505C428.763 5.5505 438.029 13.7248 440 5.5505ZM437.733 5.5505C437.733 5.75233 437.536 5.95417 437.339 5.95417C437.141 5.95417 436.944 5.75233 436.944 5.5505C436.944 5.34866 437.141 5.14683 437.339 5.14683C437.536 5.14683 437.733 5.34866 437.733 5.5505ZM431.227 5.5505C431.227 5.5505 431.819 3.12848 436.353 5.5505C436.353 5.5505 432.114 7.97252 431.227 5.5505Z" fill="#333333"/>
<path d="M427.974 6.66059C427.383 6.66059 426.89 6.156 426.89 5.65141C426.89 5.04591 427.383 4.54132 427.876 4.54132C428.467 4.54132 428.96 5.04591 428.96 5.5505C429.059 6.156 428.566 6.66059 427.974 6.66059Z" fill="#333333"/>
<path d="M426.989 5.04591H30.6557V6.156H426.989V5.04591Z" fill="#333333"/>
</svg>
