<svg width="1380" height="41" viewBox="0 0 1380 41" fill="none" xmlns="http://www.w3.org/2000/svg">
<path d="M693.844 28.2554C693.844 28.2554 694.041 28.3542 694.436 28.6506C694.83 28.947 695.421 29.3422 696.21 29.9349C697.787 31.0217 700.054 32.6024 703.209 34.2819C704.786 35.1711 706.56 36.0602 708.531 36.8506C709.517 37.2458 710.601 37.641 711.686 38.0361C712.77 38.4313 713.953 38.7277 715.234 39.0241C716.417 39.3205 717.699 39.5181 719.079 39.7157C720.36 39.9133 721.74 40.0121 723.219 40.0121C723.613 40.0121 723.909 40.0121 724.303 40.0121C724.697 40.0121 724.993 40.0121 725.387 40.0121C725.781 40.0121 726.077 40.0121 726.471 39.9133C726.866 39.9133 727.26 39.8145 727.556 39.8145C729.034 39.7157 730.611 39.4193 732.09 39.1229C733.667 38.8265 735.146 38.4313 736.723 37.8386C738.3 37.2458 739.779 36.5542 741.257 35.7639C741.947 35.3687 742.736 34.8747 743.327 34.2819C744.017 33.788 744.609 33.1952 745.299 32.5036C746.481 31.2193 747.566 29.8361 748.256 28.1566C749.044 26.5759 749.439 24.7976 749.636 22.9205C749.636 22.7229 749.636 22.4265 749.636 22.2289C749.636 22.0313 749.636 21.7349 749.636 21.5373V21.1422C749.636 21.0434 749.636 20.9446 749.636 20.747C749.636 20.5494 749.636 20.253 749.636 20.0554C749.537 19.1663 749.34 18.1783 749.044 17.2892C748.749 16.4 748.354 15.5108 747.96 14.7205C747.467 13.8313 746.974 13.1398 746.284 12.3494C745.693 11.559 745.003 10.8675 744.214 10.2747C743.426 9.68193 742.637 9.08916 741.75 8.49639C740.074 7.40964 738.103 6.52048 736.131 5.92771C734.16 5.23614 732.09 4.84096 729.921 4.64337C727.753 4.44578 725.584 4.44578 723.416 4.74217C721.247 5.03855 719.079 5.43373 716.91 6.1253C712.671 7.50843 708.531 9.58313 704.391 11.8554C700.35 14.2265 696.309 16.7952 692.07 19.2651C690.986 19.8578 690 20.4506 688.916 21.1422C687.831 21.7349 686.846 22.3277 685.761 23.0193C683.691 24.2048 681.621 25.4892 679.551 26.6747C675.411 29.0458 671.271 31.3181 667.033 33.294C664.963 34.2819 662.794 35.1711 660.626 35.8627C658.457 36.5542 656.289 37.2458 654.021 37.641C651.754 38.0361 649.586 38.2337 647.319 38.2337C647.023 38.2337 646.727 38.2337 646.431 38.2337C646.136 38.2337 645.84 38.2337 645.643 38.1349H644.854C644.559 38.1349 644.263 38.0361 644.066 38.0361L643.671 37.9374C643.573 37.9374 643.376 37.8386 643.277 37.8386C642.981 37.7398 642.784 37.7398 642.489 37.641C641.996 37.5422 641.404 37.3446 640.911 37.2458C640.419 37.147 639.827 36.9494 639.334 36.7518L638.94 36.653C638.841 36.5542 638.644 36.5542 638.546 36.4554C638.25 36.3566 638.053 36.2578 637.757 36.159C637.461 36.0602 637.264 35.9614 637.067 35.7639C636.87 35.6651 636.574 35.4675 636.377 35.3687C636.18 35.2699 635.884 35.0723 635.687 34.9735L635.096 34.6771C634.997 34.6771 634.997 34.5783 634.899 34.5783C634.701 34.3807 634.504 34.2819 634.209 34.0843C634.11 33.9855 634.011 33.8867 633.913 33.788L633.617 33.4916C633.42 33.294 633.223 33.0964 633.026 32.9976C632.829 32.8 632.631 32.6024 632.434 32.4048L632.139 32.1084C632.04 32.0096 631.941 31.9108 631.843 31.812C631.646 31.6145 631.547 31.4169 631.35 31.2193C631.153 31.0217 631.054 30.8241 630.857 30.5277L630.66 30.2313C630.561 30.1325 630.561 30.0337 630.463 29.9349C630.364 29.7373 630.167 29.441 630.069 29.2434C629.97 29.0458 629.871 28.7494 629.773 28.5518L629.576 28.1566C629.477 28.0578 629.477 27.959 629.477 27.7614C629.379 27.5639 629.28 27.2675 629.181 27.0699C629.083 26.7735 629.083 26.5759 628.984 26.2795L628.886 25.8843C628.886 25.7855 628.787 25.5879 628.787 25.4892C628.689 25.1928 628.689 24.9952 628.59 24.6988C628.59 24.4024 628.491 24.2048 628.491 23.9084L628.393 23.5133C628.393 23.4145 628.393 23.2169 628.393 23.1181C628.393 22.8217 628.393 22.6241 628.294 22.3277C628.294 22.0313 628.294 21.8337 628.294 21.5373C628.294 21.241 628.294 21.0434 628.294 20.747C628.294 20.4506 628.294 20.253 628.294 19.9566C628.294 19.6602 628.393 19.4627 628.393 19.2651V18.4747C628.393 18.2771 628.491 17.9807 628.491 17.7831C629.28 13.9301 631.054 10.4723 633.617 7.90361C634.899 6.61928 636.279 5.53253 637.659 4.54458C638.053 4.34699 638.349 4.0506 638.743 3.85301C639.137 3.65542 639.433 3.45783 639.827 3.26024C640.517 2.86506 641.306 2.46988 642.094 2.17349C643.573 1.48193 645.051 0.987951 646.629 0.59277C647.023 0.493975 647.417 0.39518 647.713 0.296384C648.107 0.197589 648.501 0.098794 648.797 0.098794C649.191 -1.13249e-06 649.586 -1.13249e-06 649.881 -0.0987963C650.276 -0.0987963 650.571 -0.197592 650.966 -0.197592C651.36 -0.197592 651.656 -0.296387 652.05 -0.296387C652.247 -0.296387 652.444 -0.296387 652.543 -0.296387C652.74 -0.296387 652.937 -0.296387 653.036 -0.296387C653.43 -0.296387 653.726 -0.296387 654.12 -0.296387H654.711C654.909 -0.296387 655.007 -0.296387 655.204 -0.296387C655.401 -0.296387 655.5 -0.296387 655.697 -0.296387H656.289C656.584 -0.296387 656.979 -0.197592 657.274 -0.197592C657.57 -0.197592 657.964 -0.0987963 658.26 -0.0987963C658.556 -1.13249e-06 658.95 -1.13249e-06 659.246 0.098794C661.809 0.59277 664.076 1.38313 666.047 2.17349C668.019 3.06265 669.793 4.0506 671.37 4.93976C674.426 6.91566 676.496 8.79277 677.777 10.0771C678.467 10.7687 678.96 11.2627 679.256 11.559C679.551 11.9542 679.749 12.053 679.749 12.053C679.749 12.053 679.551 11.8554 679.256 11.559C678.861 11.2627 678.369 10.6699 677.679 10.0771C676.299 8.79277 674.13 7.01446 671.074 5.13735C669.497 4.24819 667.821 3.35904 665.751 2.56867C663.78 1.77831 661.513 1.08675 659.049 0.691565C658.753 0.59277 658.457 0.59277 658.063 0.59277C657.767 0.59277 657.471 0.493975 657.077 0.493975C656.781 0.493975 656.387 0.39518 656.091 0.39518H655.599C655.401 0.39518 655.303 0.39518 655.106 0.39518C654.909 0.39518 654.81 0.39518 654.613 0.39518H654.021C653.726 0.39518 653.331 0.39518 653.036 0.39518C652.839 0.39518 652.74 0.39518 652.543 0.39518C652.346 0.39518 652.149 0.39518 652.05 0.39518C651.656 0.39518 651.36 0.39518 650.966 0.493975C650.571 0.493975 650.276 0.59277 649.881 0.59277C649.487 0.691565 649.191 0.691565 648.797 0.79036C648.403 0.889156 648.107 0.889156 647.713 0.987951C647.319 1.08675 647.023 1.18554 646.629 1.28434C645.15 1.67952 643.77 2.17349 642.291 2.86506C639.433 4.1494 636.771 6.1253 634.307 8.49639C634.011 8.79277 633.716 9.08916 633.519 9.48434C633.42 9.68193 633.223 9.78072 633.124 9.97831C633.026 10.1759 632.927 10.3735 632.73 10.4723L632.533 10.7687C632.434 10.8675 632.434 10.9663 632.336 11.0651C632.237 11.2627 632.139 11.4602 632.04 11.6578C631.941 11.8554 631.843 12.053 631.744 12.2506C631.646 12.4482 631.547 12.6458 631.449 12.8434C631.251 13.2386 631.054 13.6337 630.956 14.0289C630.857 14.2265 630.759 14.4241 630.759 14.6217C630.66 14.8193 630.66 15.0169 630.561 15.2145L630.364 15.8072C630.266 16.0048 630.266 16.2024 630.167 16.4988C630.069 16.6964 630.069 16.894 630.069 17.1904C630.069 17.388 629.97 17.5855 629.97 17.8819C629.97 18.0795 629.871 18.3759 629.871 18.5735V19.2651C629.871 19.4627 629.773 19.759 629.773 19.9566C629.773 20.1542 629.773 20.4506 629.773 20.6482C629.773 20.8458 629.773 21.1422 629.773 21.3398C629.773 21.5373 629.773 21.8337 629.773 22.0313C629.773 22.2289 629.773 22.5253 629.871 22.7229C629.871 22.8217 629.871 22.9205 629.871 23.0193L629.97 23.3157C629.97 23.5133 630.069 23.8096 630.069 24.0072C630.167 24.2048 630.167 24.5012 630.266 24.6988C630.266 24.7976 630.266 24.8964 630.364 24.9952L630.463 25.2916C630.561 25.4892 630.561 25.7855 630.66 25.9831C630.759 26.1807 630.857 26.3783 630.956 26.6747C630.956 26.7735 631.054 26.8723 631.054 26.9711L631.251 27.2675C631.35 27.4651 631.449 27.6627 631.547 27.8602C631.646 28.0578 631.744 28.2554 631.941 28.453C632.04 28.5518 632.04 28.6506 632.139 28.7494L632.336 29.0458C632.434 29.2434 632.631 29.441 632.73 29.6386C632.927 29.8361 633.026 30.0337 633.223 30.2313C633.321 30.3301 633.42 30.4289 633.42 30.5277L633.716 30.8241C633.913 31.0217 634.011 31.1205 634.209 31.3181C634.406 31.5157 634.603 31.6145 634.8 31.812L635.096 32.0096C635.194 32.1084 635.293 32.1084 635.391 32.2072C635.589 32.306 635.786 32.5036 635.983 32.6024L636.081 32.7012L636.279 32.8L636.574 32.9976C636.771 33.0964 636.969 33.294 637.166 33.3928C637.363 33.4916 637.56 33.5904 637.856 33.6892C638.053 33.788 638.25 33.8867 638.546 33.9855C638.743 34.0843 639.039 34.1831 639.236 34.2819C639.334 34.2819 639.433 34.3807 639.63 34.3807L640.024 34.4795C640.517 34.6771 641.01 34.7759 641.503 34.8747C641.996 34.9735 642.489 35.1711 642.981 35.2699C643.277 35.2699 643.474 35.3687 643.77 35.3687C643.869 35.3687 644.066 35.4675 644.164 35.4675H644.559C644.854 35.4675 645.051 35.5663 645.347 35.5663H646.136C646.431 35.5663 646.629 35.5663 646.924 35.6651C647.22 35.6651 647.417 35.6651 647.713 35.6651C649.783 35.6651 651.951 35.4675 654.021 35.0723C656.091 34.6771 658.26 34.0843 660.33 33.294C662.4 32.6024 664.47 31.7133 666.54 30.7253C670.68 28.8482 674.721 26.5759 678.763 24.2048C680.833 23.0193 682.804 21.7349 684.874 20.5494C685.86 19.9566 686.944 19.2651 688.029 18.6723C689.113 18.0795 690.099 17.4867 691.183 16.894C695.323 14.4241 699.364 11.8554 703.603 9.48434C707.743 7.11325 712.08 4.93976 716.516 3.55663C718.783 2.86506 721.05 2.37108 723.416 2.0747C725.683 1.87711 728.049 1.77831 730.316 2.0747C732.583 2.27229 734.85 2.86506 736.92 3.55663C738.99 4.24819 741.06 5.23614 742.933 6.42169C743.82 7.01446 744.707 7.70602 745.594 8.39759C746.383 9.08916 747.171 9.87952 747.861 10.7687C748.551 11.559 749.143 12.547 749.636 13.4361C750.129 14.4241 750.523 15.412 750.819 16.4C751.114 17.388 751.311 18.4747 751.41 19.4627C751.41 19.759 751.41 19.9566 751.41 20.253C751.41 20.3518 751.41 20.5494 751.41 20.6482V21.0434C751.41 21.3398 751.41 21.5373 751.41 21.8337C751.41 22.1301 751.41 22.3277 751.311 22.6241C751.114 24.6988 750.621 26.5759 749.734 28.3542C748.847 30.1325 747.664 31.7133 746.383 32.9976C745.693 33.6892 745.003 34.2819 744.313 34.7759C743.623 35.3687 742.834 35.8627 742.046 36.2578C740.469 37.147 738.891 37.8386 737.216 38.4313C735.639 38.9253 733.963 39.3205 732.386 39.6169C730.809 39.9133 729.231 40.1108 727.654 40.2096C727.26 40.2096 726.866 40.3084 726.471 40.3084C726.077 40.3084 725.683 40.3084 725.387 40.3084C724.993 40.3084 724.599 40.3084 724.303 40.3084C723.909 40.3084 723.613 40.3084 723.219 40.3084C721.74 40.2096 720.36 40.1108 718.98 39.9133C717.6 39.7157 716.319 39.4193 715.136 39.1229C713.854 38.8265 712.77 38.4313 711.587 38.0361C710.503 37.641 709.419 37.2458 708.433 36.7518C706.461 35.8627 704.687 34.8747 703.11 33.9855C700.054 32.2072 697.787 30.5277 696.309 29.3422C695.52 28.7494 695.027 28.3542 694.633 28.0578C694.041 28.3542 693.844 28.2554 693.844 28.2554Z" fill="#333333"/>
<path d="M717.206 13.3373C717.206 13.3373 717.009 13.3373 716.713 13.4361C716.516 13.4361 716.319 13.5349 716.023 13.5349C715.727 13.5349 715.431 13.6337 715.136 13.7325C713.854 14.0289 711.883 14.4241 709.714 15.3133C707.447 16.1036 704.884 17.388 702.124 18.8699C699.364 20.4506 696.407 22.3277 693.253 24.2048C691.676 25.1928 690.099 26.0819 688.62 26.9711C687.831 27.3663 687.141 27.8602 686.353 28.2554C685.663 28.6506 684.874 29.0458 684.184 29.441C681.424 30.9229 678.861 32.4048 676.693 33.4916C676.397 33.5904 676.2 33.7879 675.904 33.8867C675.609 33.9855 675.411 34.1831 675.116 34.2819C674.623 34.4795 674.13 34.7759 673.736 34.9735C672.849 35.3687 672.06 35.7639 671.469 35.9614C670.187 36.4554 669.497 36.7518 669.497 36.7518C669.497 36.7518 670.187 36.3566 671.271 35.6651C671.863 35.2699 672.553 34.8747 673.341 34.3807C673.736 34.0843 674.13 33.788 674.623 33.4916C674.82 33.294 675.116 33.1952 675.313 32.9976C675.51 32.8 675.806 32.7012 676.003 32.5036C676.989 31.812 678.073 31.0217 679.256 30.2313C679.847 29.8361 680.439 29.441 681.129 28.947C681.72 28.5518 682.41 28.0578 683.1 27.6626C683.79 27.2675 684.48 26.7735 685.17 26.3783C685.86 25.9831 686.649 25.4892 687.339 25.094C688.817 24.2048 690.296 23.2169 691.873 22.2289C695.027 20.253 698.083 18.4747 701.04 17.0916C703.997 15.7084 706.757 14.7205 709.123 14.1277C711.489 13.5349 713.46 13.3373 714.84 13.2386C715.136 13.2386 715.53 13.2386 715.727 13.2386C716.023 13.2386 716.22 13.2386 716.417 13.2386C717.009 13.3373 717.206 13.3373 717.206 13.3373Z" fill="#333333"/>
<path d="M711.686 5.53253C711.686 5.53253 711.489 5.53253 711.193 5.63132C710.996 5.63132 710.799 5.73012 710.503 5.73012C710.207 5.73012 709.911 5.82891 709.616 5.92771C708.334 6.2241 706.363 6.61928 704.194 7.50843C701.927 8.29879 699.364 9.58313 696.604 11.0651C693.844 12.6458 690.887 14.5229 687.733 16.4C686.156 17.388 684.579 18.2771 683.1 19.1663C682.311 19.5614 681.621 20.0554 680.833 20.4506C680.143 20.8458 679.354 21.241 678.664 21.6361C675.904 23.1181 673.341 24.6 671.173 25.6867C670.877 25.7855 670.68 25.9831 670.384 26.0819C670.089 26.1807 669.891 26.3783 669.596 26.4771C669.103 26.6747 668.61 26.9711 668.216 27.1687C667.329 27.5639 666.54 27.959 665.949 28.1566C664.667 28.6506 663.977 28.947 663.977 28.947C663.977 28.947 664.667 28.5518 665.751 27.8602C666.343 27.4651 667.033 27.0699 667.821 26.5759C668.216 26.2795 668.61 25.9831 669.103 25.6867C669.3 25.4892 669.596 25.3904 669.793 25.1928C669.99 24.9952 670.286 24.8964 670.483 24.6988C671.469 24.0072 672.553 23.2169 673.736 22.4265C674.327 22.0313 674.919 21.6361 675.609 21.1422C676.2 20.747 676.89 20.253 677.58 19.8578C678.27 19.4626 678.96 18.9687 679.65 18.5735C680.34 18.1783 681.129 17.6843 681.819 17.2892C683.297 16.4 684.776 15.412 686.353 14.4241C689.507 12.4482 692.563 10.6699 695.52 9.28675C698.477 7.90361 701.237 6.91566 703.603 6.32289C705.969 5.73012 707.94 5.53253 709.32 5.43373C709.616 5.43373 710.01 5.43373 710.207 5.43373C710.503 5.43373 710.7 5.43373 710.897 5.43373C711.489 5.53253 711.686 5.53253 711.686 5.53253Z" fill="#333333"/>
<path d="M1380 23.0193C1380 23.0193 1377.44 8.89156 1359.69 23.1181C1359.69 23.1181 1376.35 37.4434 1380 23.0193ZM1375.96 23.1181C1375.96 23.5133 1375.66 23.8096 1375.27 23.8096C1374.87 23.8096 1374.58 23.5133 1374.58 23.1181C1374.58 22.7229 1374.87 22.4265 1375.27 22.4265C1375.66 22.4265 1375.96 22.7229 1375.96 23.1181ZM1364.13 23.1181C1364.13 23.1181 1365.31 18.8699 1373.4 23.1181C1373.4 23.1181 1365.81 27.4651 1364.13 23.1181Z" fill="#333333"/>
<path d="M1358.41 25.094C1357.43 25.094 1356.54 24.3036 1356.54 23.2169C1356.54 22.2289 1357.33 21.3398 1358.41 21.3398C1359.4 21.3398 1360.29 22.1301 1360.29 23.2169C1360.29 24.2048 1359.4 25.094 1358.41 25.094Z" fill="#333333"/>
<path d="M1344.02 25.094C1343.04 25.094 1342.15 24.3036 1342.15 23.2169C1342.15 22.2289 1342.94 21.3398 1344.02 21.3398C1345.01 21.3398 1345.89 22.1301 1345.89 23.2169C1345.89 24.3036 1345.11 25.094 1344.02 25.094Z" fill="#333333"/>
<path d="M1351.22 28.1566C1351.22 28.1566 1357.62 23.2169 1357.53 23.2169C1357.62 23.2169 1351.12 18.2771 1351.12 18.2771C1350.33 19.8578 1344.71 23.2169 1344.81 23.2169C1344.71 23.3157 1350.43 26.5759 1351.22 28.1566Z" fill="#333333"/>
<path d="M736.821 23.1181C725.289 13.8313 723.613 23.0193 723.613 23.0193C725.979 32.5036 736.821 23.1181 736.821 23.1181ZM726.669 22.7229C726.866 22.7229 727.063 22.9205 727.063 23.1181C727.063 23.3157 726.866 23.5133 726.669 23.5133C726.471 23.5133 726.274 23.3157 726.274 23.1181C726.274 22.9205 726.471 22.7229 726.669 22.7229ZM727.95 23.1181C733.273 20.3518 733.963 23.1181 733.963 23.1181C732.879 25.9831 727.95 23.1181 727.95 23.1181Z" fill="#333333"/>
<path d="M737.709 24.4024C738.399 24.4024 738.891 23.9084 738.891 23.2169C738.891 22.5253 738.399 22.0313 737.709 22.0313C737.019 22.0313 736.526 22.5253 736.526 23.2169C736.427 23.9084 737.019 24.4024 737.709 24.4024Z" fill="#333333"/>
<path d="M1344.02 22.6241H738.891V23.9084H1344.02V22.6241Z" fill="#333333"/>
<path d="M20.3057 23.1181C2.56286 8.89156 0 23.0193 0 23.0193C3.64714 37.4434 20.3057 23.1181 20.3057 23.1181ZM4.73143 22.4265C5.12571 22.4265 5.42143 22.7229 5.42143 23.1181C5.42143 23.5133 5.12571 23.8096 4.73143 23.8096C4.33714 23.8096 4.04143 23.5133 4.04143 23.1181C4.04143 22.7229 4.33714 22.4265 4.73143 22.4265ZM6.60429 23.1181C14.6871 18.8699 15.87 23.1181 15.87 23.1181C14.1943 27.4651 6.60429 23.1181 6.60429 23.1181Z" fill="#333333"/>
<path d="M21.5871 25.094C22.5729 25.094 23.46 24.3036 23.46 23.2169C23.46 22.2289 22.6714 21.3398 21.5871 21.3398C20.6014 21.3398 19.7143 22.1301 19.7143 23.2169C19.7143 24.2048 20.6014 25.094 21.5871 25.094Z" fill="#333333"/>
<path d="M35.9786 25.094C36.9643 25.094 37.8514 24.3036 37.8514 23.2169C37.8514 22.2289 37.0629 21.3398 35.9786 21.3398C34.9929 21.3398 34.1057 22.1301 34.1057 23.2169C34.1057 24.3036 34.8943 25.094 35.9786 25.094Z" fill="#333333"/>
<path d="M28.7829 28.1566C28.7829 28.1566 22.3757 23.2169 22.4743 23.2169C22.3757 23.2169 28.8814 18.2771 28.8814 18.2771C29.67 19.8578 35.2886 23.2169 35.19 23.2169C35.2886 23.3157 29.5714 26.5759 28.7829 28.1566Z" fill="#333333"/>
<path d="M656.387 23.1181C656.387 23.1181 654.711 13.9301 643.179 23.2169C643.179 23.1181 654.021 32.5036 656.387 23.1181ZM653.726 23.1181C653.726 23.3157 653.529 23.5133 653.331 23.5133C653.134 23.5133 652.937 23.3157 652.937 23.1181C652.937 22.9205 653.134 22.7229 653.331 22.7229C653.529 22.7229 653.726 22.9205 653.726 23.1181ZM646.037 23.2169C646.037 23.2169 646.826 20.4506 652.05 23.2169C652.05 23.1181 647.121 25.9831 646.037 23.2169Z" fill="#333333"/>
<path d="M642.291 24.4024C641.601 24.4024 641.109 23.9084 641.109 23.2169C641.109 22.5253 641.601 22.0313 642.291 22.0313C642.981 22.0313 643.474 22.5253 643.474 23.2169C643.573 23.9084 642.981 24.4024 642.291 24.4024Z" fill="#333333"/>
<path d="M641.109 22.6241H35.9786V23.9084H641.109V22.6241Z" fill="#333333"/>
</svg>
