<svg width="114" height="28" viewBox="0 0 114 28" xmlns="http://www.w3.org/2000/svg">
<path d="M10.9507 19.5646C11.3719 19.5646 11.7931 19.4937 12.2143 19.281C12.6355 19.1392 12.9864 18.8557 13.2672 18.5722C13.6182 18.2177 13.899 17.7924 14.1798 17.2962C14.3904 16.8 14.601 16.2329 14.7414 15.6658C14.8818 15.0987 14.952 14.4608 15.0222 13.8228C15.0924 13.1848 15.0924 12.476 15.0924 11.838C15.0924 11.0582 15.0222 10.2785 14.952 9.49874C14.8818 8.71899 14.6712 7.93924 14.4606 7.23038C14.25 6.52152 13.9692 5.81266 13.6182 5.24557C13.2672 4.6076 12.8461 4.11139 12.4249 3.68608C12.0037 3.33165 11.5825 3.0481 11.0911 2.83545C10.5997 2.62279 10.1084 2.5519 9.54679 2.5519C9.12561 2.5519 8.70443 2.62279 8.28325 2.76456C7.86206 2.90633 7.51108 3.0481 7.23029 3.26076C6.38793 3.89874 5.75615 4.82026 5.40517 6.02532C5.05418 7.23038 4.91379 8.57722 4.91379 10.0658C4.91379 10.7747 4.98399 11.4835 5.05418 12.2633C5.12438 13.043 5.33497 13.8228 5.54556 14.5316C5.75615 15.2405 6.03694 15.9494 6.45812 16.6582C6.80911 17.2962 7.30049 17.8633 7.79187 18.3595C8.21305 18.7139 8.70443 18.9975 9.19581 19.2101C9.75738 19.4228 10.319 19.5646 10.9507 19.5646ZM10.0382 20.9823C8.28325 20.9823 6.80911 20.6987 5.61576 20.2025C4.42241 19.7063 3.36946 18.9975 2.52709 18.1468C1.61453 17.1544 0.912561 16.0203 0.561576 14.7443C0.140394 13.4684 0 12.2633 0 11.0582C0 9.85317 0.210591 8.57722 0.631773 7.37216C1.05296 6.09621 1.75492 5.03291 2.80788 4.11139C3.65024 3.26076 4.7734 2.5519 6.03694 1.98481C7.30049 1.48861 8.77463 1.20506 10.319 1.20506C11.9335 1.20506 13.3374 1.48861 14.5308 1.98481C15.7241 2.48101 16.7771 3.18987 17.5492 4.04051C18.3916 4.89114 18.9532 5.95443 19.3744 7.08861C19.7956 8.22279 20.0061 9.49873 20.0061 10.7747C20.0061 11.9089 19.8657 13.043 19.585 14.1063C19.3042 15.1696 18.8128 16.162 18.181 17.0127C17.1983 18.3595 15.9347 19.3519 14.5308 19.9899C13.1268 20.6278 11.6527 20.9823 10.0382 20.9823Z" fill="#66753B"/>
<path d="M22.2526 19.4228C22.4631 19.3519 22.6035 19.3519 22.7439 19.281C22.8843 19.281 23.0247 19.2101 23.2353 19.1392C23.4459 19.0684 23.5863 18.9975 23.7267 18.7848C23.7969 18.5722 23.8671 18.2886 23.9373 17.9342C23.9373 17.7215 23.9373 17.3671 23.9373 17.0127C23.9373 16.5873 23.9373 16.162 23.9373 15.7367C23.9373 15.3114 23.9373 14.8152 23.9373 14.3899V11.838C23.9373 11.6253 23.9373 11.4127 23.9373 11.2C23.9373 10.9873 23.9373 10.9165 23.8671 10.7747C23.7969 10.6329 23.7267 10.4911 23.5863 10.2785C23.4459 10.0658 23.0247 9.85316 22.4631 9.6405C22.4631 9.56962 22.4631 9.35696 22.5333 9.1443C22.5333 8.93164 22.6035 8.78987 22.6737 8.71898C23.1651 8.6481 23.6565 8.57721 24.1479 8.50633C24.6393 8.43544 25.1306 8.29367 25.5518 8.1519C25.973 8.01012 26.3942 7.86835 26.8154 7.72658C27.1663 7.58481 27.5173 7.44303 27.7981 7.30126C27.8683 7.37215 27.9385 7.44303 27.9385 7.51392V9.21519C27.9385 9.28607 27.9385 9.28607 28.0087 9.28607C28.0789 9.28607 28.0789 9.28607 28.0789 9.28607C28.7809 8.71898 29.4828 8.22278 30.1848 7.93924C30.8868 7.58481 31.5186 7.44304 32.0099 7.44304C33.4139 7.44304 34.4668 8.01013 35.1688 9.1443C35.5198 9.64051 35.7304 10.1367 35.8006 10.7747C35.941 11.4127 35.941 12.0506 35.941 12.7595V18.4304C35.941 18.643 36.0112 18.8557 36.1516 18.9266C36.5025 19.2101 36.9939 19.3519 37.6257 19.4228C37.6959 19.4937 37.6959 19.7063 37.6257 19.919C37.6257 20.2025 37.5555 20.3443 37.4853 20.4152C37.2747 20.4152 36.8535 20.4152 36.3622 20.3443C35.8708 20.3443 35.0284 20.2734 33.9755 20.2734C33.5543 20.2734 33.2033 20.2734 32.8523 20.2734C32.5715 20.2734 32.2907 20.2734 32.0099 20.2734C31.7291 20.2734 31.5186 20.2734 31.308 20.2734C31.0974 20.2734 30.8166 20.2734 30.606 20.2734C30.606 20.2025 30.5358 20.1316 30.5358 20.0608C30.5358 19.919 30.5358 19.8481 30.5358 19.7063C30.5358 19.5646 30.5358 19.4937 30.5358 19.4228C30.5358 19.3519 30.606 19.281 30.606 19.281L31.3782 19.0684C31.5888 18.9975 31.7291 18.9266 31.7993 18.7848C31.8695 18.643 31.8695 18.4304 31.9397 18.2177C31.9397 18.0051 31.9397 17.5797 32.0099 16.9418C32.0099 16.3747 32.0099 15.7367 32.0099 15.0278C32.0099 14.319 32.0099 13.681 32.0099 13.1139C32.0099 12.4759 31.9397 12.0506 31.8695 11.6962C31.7291 11.0582 31.4484 10.562 30.957 10.2785C30.7464 10.1367 30.5358 10.0658 30.3252 9.99493C30.1146 9.92405 29.904 9.92405 29.6232 9.92405C29.4828 9.92405 29.2021 9.92405 28.9915 9.99493C28.7107 10.0658 28.4299 10.1367 28.2193 10.2785C28.1491 10.3494 28.0789 10.4202 28.0087 10.4911C27.9385 10.6329 27.9385 10.7038 27.9385 10.7747C27.9385 11.2709 27.9385 11.838 27.9385 12.4759C27.9385 13.1139 27.9385 13.7519 27.9385 14.4608C27.9385 15.0987 27.9385 15.7367 27.9385 16.3747C27.9385 17.0127 27.9385 17.5089 27.9385 17.9342C27.9385 18.3595 28.0087 18.643 28.1491 18.7848C28.2895 18.9266 28.4299 18.9975 28.6405 19.0684C28.7809 19.1392 28.9213 19.1392 28.9915 19.1392C29.0617 19.1392 29.2021 19.2101 29.4828 19.2101C29.553 19.281 29.553 19.4228 29.4828 19.7063C29.4828 19.9899 29.4126 20.1316 29.4126 20.2734C28.8511 20.2734 28.2193 20.2025 27.6577 20.2025C27.0961 20.2025 26.4644 20.2025 25.7624 20.2025C24.7796 20.2025 24.0075 20.2025 23.5161 20.2025C23.0247 20.2025 22.6035 20.2734 22.3227 20.2734C22.2526 20.2025 22.2526 19.9899 22.2526 19.7063C22.1824 19.7063 22.2526 19.4937 22.2526 19.4228Z" fill="#66753B"/>
<path d="M44.7857 8.86075C44.2241 8.86075 43.8029 9.21518 43.5221 9.85316C43.2414 10.4911 43.0308 11.4127 43.0308 12.4051C43.0308 12.4051 43.0308 12.4759 43.101 12.5468C43.101 12.6177 43.1712 12.6177 43.2414 12.6177C43.452 12.6177 43.6625 12.6177 43.9433 12.6177C44.2241 12.6177 44.5751 12.6177 44.9261 12.6177C45.2771 12.6177 45.5579 12.6177 45.9088 12.6177C46.1896 12.6177 46.4002 12.5468 46.5406 12.5468C46.681 12.4759 46.7512 12.4051 46.7512 12.2633C46.681 11.2709 46.5406 10.4911 46.1896 9.85316C45.8386 9.1443 45.3473 8.86075 44.7857 8.86075ZM50.6822 16.7291L50.7524 16.8C50.8226 16.8709 50.8226 16.8709 50.8226 16.9418C50.8226 17.0835 50.8226 17.2962 50.7524 17.5089C50.6822 17.7215 50.6822 17.8633 50.612 17.9342C49.9101 18.7848 49.0677 19.4937 48.0849 19.9899C47.032 20.4861 46.0492 20.7696 44.9963 20.7696C44.0837 20.7696 43.3116 20.6278 42.6096 20.4152C41.9076 20.1316 41.346 19.7772 40.9249 19.3519C40.2931 18.7139 39.8017 17.9342 39.5209 17.0835C39.2401 16.162 39.0997 15.2405 39.0997 14.319C39.0997 13.043 39.3805 11.9089 39.9421 10.9873C40.5037 10.0658 41.2056 9.28607 41.9778 8.78987C42.5394 8.43544 43.101 8.22277 43.7327 8.01011C44.3645 7.79746 44.9963 7.72657 45.6281 7.72657C46.4704 7.72657 47.2426 7.86835 47.8042 8.22278C48.3657 8.50632 48.8571 8.93164 49.2783 9.35695C49.6293 9.78227 49.9101 10.2785 50.1207 10.7747C50.3313 11.2709 50.4717 11.7671 50.4717 12.1924C50.4717 12.2633 50.5418 12.4051 50.6822 12.4759C50.7524 12.5468 50.8928 12.6177 50.963 12.6177C50.963 12.6177 50.963 12.6886 50.963 12.7595C50.963 12.8304 50.963 12.9013 50.963 13.043C50.963 13.1139 50.963 13.2557 50.8928 13.3266C50.8928 13.3975 50.8226 13.4683 50.8226 13.4683C50.612 13.5392 50.1909 13.6101 49.5591 13.681C48.9273 13.7519 48.2955 13.8228 47.5234 13.8937C46.7512 13.9646 45.979 14.0354 45.2069 14.0354C44.4347 14.1063 43.8029 14.1063 43.2414 14.1063C43.1712 14.1063 43.1712 14.1772 43.1712 14.2481C43.1712 14.319 43.1712 14.3899 43.1712 14.3899C43.2414 14.8152 43.3116 15.2405 43.5221 15.6658C43.7327 16.0911 44.0135 16.5164 44.3645 16.8709C45.0665 17.5797 46.0492 17.9342 47.2426 17.9342C47.8744 17.9342 48.5061 17.8633 49.0677 17.6506C49.5591 17.5089 50.1207 17.1544 50.6822 16.7291Z" fill="#66753B"/>
<path d="M53.7008 14.7443C54.0517 15.8076 54.4027 16.6582 54.8239 17.2962C55.2451 17.9342 55.7365 18.5013 56.298 18.9266C56.7192 19.2101 57.1404 19.4228 57.6318 19.5645C58.1232 19.7063 58.6145 19.7772 59.0357 19.7772C59.7377 19.7772 60.3695 19.5646 60.8608 19.1392C61.3522 18.7139 61.633 18.1468 61.633 17.3671C61.633 17.0127 61.5628 16.6582 61.4926 16.3747C61.4224 16.0911 61.2118 15.7367 61.0012 15.4532C60.7906 15.0987 60.4397 14.8152 59.9483 14.4608C59.5271 14.1063 58.8953 13.7519 58.1934 13.2557C57.5616 12.8304 56.9298 12.4051 56.3682 12.0506C55.8067 11.6253 55.2451 11.2 54.8239 10.7038C54.4027 10.2076 54.0517 9.6405 53.771 9.07341C53.4902 8.43543 53.42 7.72657 53.42 6.94682C53.42 6.02531 53.5604 5.24556 53.9114 4.5367C54.2623 3.82784 54.7537 3.26075 55.3153 2.76455C55.9471 2.26834 56.5788 1.91391 57.4212 1.70126C58.1934 1.4886 59.0357 1.34683 59.9483 1.34683C60.5099 1.34683 61.0714 1.34683 61.4926 1.41771C61.984 1.4886 62.4052 1.4886 62.7562 1.55948C63.1774 1.63037 63.5283 1.70126 63.8793 1.77214C64.2303 1.84303 64.5813 1.84303 65.0025 1.91391C64.9323 2.481 64.7919 3.18987 64.7217 3.89873C64.6515 4.60759 64.5813 5.45822 64.5111 6.45062C64.4409 6.52151 64.2303 6.5924 63.9495 6.5924C63.6687 6.5924 63.5283 6.5924 63.3879 6.52151C63.2476 5.59999 63.037 4.82024 62.8264 4.32404C62.6158 3.82784 62.335 3.47341 61.984 3.18987C61.633 2.90632 61.282 2.76455 60.931 2.62277C60.5801 2.55189 60.1589 2.481 59.6675 2.481C58.8251 2.481 58.1934 2.76455 57.7722 3.26075C57.351 3.75695 57.0702 4.39493 57.0702 5.10379C57.0702 5.74176 57.2106 6.30885 57.5616 6.80505C57.9126 7.23037 58.3338 7.72657 58.9655 8.15189C59.5973 8.57721 60.1589 8.93164 60.6503 9.21518C61.1416 9.49873 61.7032 9.85316 62.335 10.2785C63.4581 10.9873 64.3005 11.7671 64.7919 12.4759C65.3535 13.2557 65.564 14.1772 65.564 15.2405C65.564 16.0911 65.4237 16.8 65.0727 17.5089C64.7217 18.2177 64.3005 18.8557 63.6687 19.3519C63.037 19.919 62.2648 20.3443 61.3522 20.6278C60.4397 20.9114 59.3867 21.124 58.1934 21.124C57.1404 21.124 56.1577 20.9823 55.3153 20.7696C54.4729 20.557 53.8411 20.3443 53.42 20.1316C53.3498 19.9899 53.2094 19.7063 53.1392 19.281C52.9988 18.8557 52.9286 18.3595 52.7882 17.8633C52.718 17.3671 52.5776 16.8 52.5074 16.3038C52.4372 15.8076 52.367 15.3823 52.367 15.1696C52.367 15.0987 52.4372 15.0987 52.5776 15.0278C52.6478 14.957 52.7882 14.957 52.9286 14.8861C53.069 14.8152 53.1392 14.8152 53.2796 14.8152C53.5604 14.7443 53.7008 14.7443 53.7008 14.7443Z" fill="#66753B"/>
<path d="M67.038 2.0557C66.9678 2.0557 66.9678 1.98481 66.9678 1.84304C66.9678 1.77215 66.9678 1.63038 66.9678 1.48861C66.9678 1.34683 66.9678 1.27595 66.9678 1.20506C66.9678 1.13418 66.9678 1.06329 67.038 1.06329C67.5996 1.06329 68.2314 0.992405 68.8632 0.921519C69.4949 0.850633 70.0565 0.708859 70.6181 0.637973C71.1797 0.496201 71.671 0.425315 72.0922 0.283543C72.5134 0.141771 72.8644 0.0708861 73.075 0C73.1452 0 73.2154 0.0708855 73.2856 0.212658C73.3558 0.35443 73.3558 0.496202 73.3558 0.567088C73.2856 0.637974 73.2154 0.779746 73.2154 0.921519C73.1452 1.06329 73.1452 1.20506 73.075 1.41772C73.075 1.63038 73.0048 1.91392 73.0048 2.19747C73.0048 2.5519 73.0048 2.97722 73.0048 3.5443V9.28608C73.0048 9.42785 73.075 9.42785 73.1452 9.35696C73.777 8.93165 74.4087 8.57722 75.1107 8.22279C75.7425 7.93924 76.4445 7.72659 77.0762 7.72659C78.3398 7.72659 79.3225 8.1519 80.0245 9.00253C80.7265 9.85316 81.0774 11.1291 81.0774 12.8304V17.3671C81.0774 17.8633 81.0774 18.2177 81.0774 18.5722C81.0774 18.643 81.0774 18.7139 81.0774 18.8557C81.0774 18.9975 81.1476 19.0684 81.288 19.1392C81.4284 19.2101 81.639 19.3519 81.9198 19.4228C82.2006 19.4937 82.4814 19.5646 82.7622 19.6354C82.8324 19.7063 82.8324 19.8481 82.8324 20.1317C82.8324 20.4152 82.7622 20.6279 82.6218 20.6279C82.4112 20.6279 81.99 20.6279 81.4284 20.557C80.8669 20.557 80.0947 20.4861 79.0417 20.4861C78.41 20.4861 77.7782 20.4861 77.2166 20.4861C76.655 20.4861 76.1637 20.557 75.7425 20.557C75.6723 20.4861 75.6021 20.2734 75.6021 19.9899C75.6021 19.7063 75.6723 19.5646 75.7425 19.4937C76.0935 19.4228 76.3041 19.3519 76.5146 19.281C76.7252 19.2101 76.8656 19.0684 76.9358 18.9266C77.006 18.7848 77.006 18.4304 77.0762 18.0051C77.0762 17.5089 77.1464 16.9418 77.1464 16.3747C77.1464 15.7367 77.1464 15.1696 77.1464 14.5316C77.1464 13.9646 77.1464 13.3975 77.0762 12.9013C77.0762 12.4051 77.006 12.0506 76.9358 11.7671C76.8656 11.2 76.5848 10.7747 76.1637 10.4911C75.7425 10.2076 75.2511 9.99494 74.6193 9.99494C74.0577 9.99494 73.6366 10.0658 73.2154 10.2785C73.075 10.3494 73.0048 10.4203 73.0048 10.6329V16.5873C73.0048 17.1544 73.0048 17.5089 73.0048 17.7924C73.075 18.2177 73.075 18.5013 73.1452 18.7848C73.2154 18.9975 73.3558 19.2101 73.6366 19.281C73.777 19.3519 73.9174 19.3519 74.0577 19.4228C74.1981 19.4937 74.3385 19.4937 74.6193 19.5646C74.6895 19.6354 74.7597 19.8481 74.7597 20.0608C74.7597 20.3443 74.6895 20.4861 74.6193 20.6279C74.1279 20.6279 73.6366 20.6279 73.1452 20.557C72.6538 20.557 71.8816 20.4861 70.9691 20.4861C69.9863 20.4861 69.2844 20.4861 68.793 20.557C68.3016 20.557 67.8804 20.6279 67.5294 20.6279C67.4592 20.557 67.389 20.3443 67.389 20.0608C67.389 19.7772 67.4592 19.6354 67.5294 19.5646C67.74 19.4937 67.9506 19.4937 68.091 19.4228C68.2314 19.3519 68.442 19.3519 68.5824 19.281C68.793 19.2101 69.0036 18.9975 69.0738 18.7848C69.144 18.5013 69.144 18.1468 69.2141 17.5797C69.2843 17.0127 69.2843 16.2329 69.2843 15.3114V8.50633C69.2843 7.44304 69.2843 6.52152 69.2843 5.81266C69.2843 5.1038 69.2843 4.53671 69.2141 4.11139C69.2141 3.68608 69.144 3.40253 69.144 3.11899C69.0738 2.90633 69.0738 2.76456 69.0036 2.62278C68.9334 2.48101 68.793 2.41013 68.5824 2.26835C68.442 2.19747 68.2314 2.12658 68.0208 2.12658C67.5294 2.12658 67.3188 2.12658 67.038 2.0557Z" fill="#66753B"/>
<path d="M90.5542 8.93164C90.2734 8.93164 89.9926 9.00252 89.7118 9.21518C89.2906 9.49873 89.0098 9.99493 88.7992 10.562C88.5887 11.2 88.5185 12.1215 88.5185 13.2557C88.5185 15.3823 88.7993 17.0127 89.3608 18.0759C89.9224 19.1392 90.6244 19.6354 91.4667 19.6354C91.8879 19.6354 92.1687 19.4937 92.3793 19.281C92.7303 18.9266 93.0111 18.4304 93.2217 17.7924C93.3621 17.0835 93.5024 16.162 93.5024 15.0278C93.5024 13.1848 93.2217 11.6962 92.7303 10.562C92.2389 9.49873 91.4667 8.93164 90.5542 8.93164ZM91.1859 7.72657C92.2389 7.72657 93.2217 7.86835 93.9938 8.22278C94.766 8.57721 95.5382 9.00252 96.0997 9.56961C96.6613 10.1367 97.0825 10.8456 97.3633 11.6253C97.6441 12.4051 97.7845 13.2557 97.7845 14.1772C97.7845 15.4532 97.5037 16.5873 97.0123 17.5089C96.5209 18.4304 95.819 19.1392 94.9766 19.7063C94.4852 19.9899 93.8534 20.2734 93.0813 20.557C92.3091 20.7696 91.5369 20.9114 90.835 20.9114C89.6416 20.9114 88.6589 20.7696 87.8165 20.4152C86.9741 20.0608 86.2722 19.5645 85.7106 18.9975C85.149 18.4304 84.7278 17.7215 84.5172 16.8709C84.2365 16.0911 84.0961 15.1696 84.0961 14.2481C84.0961 13.043 84.3768 12.0506 84.8682 11.1291C85.3596 10.2076 86.0616 9.49872 86.9039 8.93164C87.4655 8.57721 88.0973 8.29366 88.7992 8.08101C89.5714 7.79746 90.3436 7.72657 91.1859 7.72657Z" fill="#66753B"/>
<path d="M106.629 10.1367C106.419 10.1367 106.208 10.1367 105.927 10.2076C105.647 10.2785 105.436 10.3494 105.296 10.4202C105.225 10.4911 105.155 10.4911 105.085 10.6329C105.015 10.7038 105.015 10.8456 104.945 10.9165V13.7519C104.945 14.3899 104.945 14.957 104.945 15.5949C104.945 16.162 104.945 16.6582 105.015 16.9418C105.015 17.2253 105.085 17.5089 105.225 17.8633C105.366 18.2177 105.506 18.4304 105.787 18.7139C106.138 18.9975 106.419 19.1392 106.7 19.2101C106.98 19.281 107.261 19.281 107.472 19.281C107.682 19.281 107.963 19.2101 108.174 19.1392C108.454 19.0684 108.665 18.8557 108.876 18.5722C109.156 18.2177 109.367 17.7215 109.507 17.1544C109.648 16.5165 109.718 15.8785 109.718 15.0278C109.718 14.1772 109.648 13.4684 109.507 12.8304C109.367 12.1924 109.086 11.6962 108.735 11.2709C108.384 10.8456 108.033 10.562 107.682 10.4202C107.542 10.2785 107.121 10.1367 106.629 10.1367ZM99.2586 10.1367C99.1884 10.0658 99.1884 9.85316 99.2586 9.6405C99.3288 9.42785 99.3288 9.21519 99.3288 9.1443C99.6798 9.07342 100.101 9.00253 100.663 8.86076C101.154 8.71899 101.645 8.57721 102.207 8.43544C102.698 8.29367 103.26 8.08101 103.681 7.93924C104.172 7.79746 104.523 7.58481 104.874 7.44304C104.945 7.44304 104.945 7.44304 105.015 7.51392C105.085 7.58481 105.155 7.6557 105.155 7.72658C105.155 7.86835 105.155 8.08101 105.155 8.43544C105.155 8.78987 105.155 9.07341 105.155 9.35696C105.155 9.42785 105.155 9.42784 105.225 9.42784C105.225 9.42784 105.296 9.42784 105.366 9.42784C105.998 9.00253 106.7 8.6481 107.401 8.29367C108.103 7.93924 108.735 7.72658 109.367 7.72658C109.999 7.72658 110.631 7.86835 111.122 8.08101C111.684 8.36456 112.105 8.6481 112.526 9.1443C113.017 9.71139 113.368 10.3494 113.649 11.1291C113.86 11.838 114 12.6177 114 13.3266C114 14.6734 113.789 15.7367 113.298 16.6582C112.877 17.5089 112.245 18.2886 111.473 18.9266C111.052 19.281 110.631 19.5646 110.209 19.8481C109.718 20.0608 109.227 20.2734 108.735 20.4861C108.244 20.6278 107.752 20.7696 107.261 20.8405C106.77 20.9114 106.349 20.9823 105.927 20.9823H105.576C105.436 20.9823 105.366 20.9823 105.296 20.9823C105.225 20.9823 105.225 21.0532 105.225 21.124V23.038C105.225 23.3924 105.225 23.8177 105.225 24.1013C105.225 24.4557 105.225 24.7392 105.296 24.9519C105.296 25.3063 105.366 25.5899 105.506 25.8025C105.647 26.0152 105.857 26.157 106.208 26.2278C106.419 26.2987 106.629 26.2987 106.98 26.3696C107.331 26.4405 107.612 26.4405 107.963 26.5114C108.033 26.5823 108.033 26.7949 107.963 27.0785C107.893 27.362 107.893 27.5038 107.823 27.5747H107.05C106.349 27.5747 105.647 27.5747 104.945 27.5747C104.313 27.5747 103.681 27.5747 103.049 27.6456C102.418 27.6456 101.786 27.7165 101.154 27.7873C100.522 27.8582 99.8904 27.9291 99.1884 28C99.1182 27.9291 99.048 27.7165 99.048 27.4329C99.048 27.1494 99.048 27.0076 99.1182 26.8658C99.399 26.7949 99.6798 26.7949 99.9606 26.724C100.241 26.6532 100.452 26.5823 100.663 26.5114C100.943 26.4405 101.084 26.2278 101.154 26.0152C101.224 25.8025 101.224 25.4481 101.294 25.0937C101.294 24.8101 101.365 24.4557 101.365 23.9595C101.365 23.4633 101.365 22.8962 101.365 22.2582V15.9494C101.365 15.3114 101.365 14.7443 101.365 14.2481C101.365 13.7519 101.365 13.2557 101.365 12.9013C101.365 12.4759 101.365 12.1215 101.294 11.7671C101.294 11.5544 101.224 11.3418 101.154 11.1291C101.084 10.9873 100.943 10.8456 100.733 10.7038C100.522 10.6329 100.312 10.562 100.101 10.4911C99.6798 10.2076 99.4692 10.1367 99.2586 10.1367Z" fill="#66753B"/>
</svg>
