<svg width="32" height="32" viewBox="0 0 32 32" xmlns="http://www.w3.org/2000/svg">
  <path d="M14.632 21.348C12.5907 21.1347 10.7494 20.628 9.17335 19.3867C8.97735 19.232 8.77468 19.0827 8.59735 18.9107C7.90668 18.244 7.83735 17.4787 8.38402 16.692C8.85068 16.0173 9.63468 15.8373 10.4494 16.2253C10.6067 16.2987 10.756 16.3933 10.9014 16.4933C13.8387 18.5253 17.8747 18.5813 20.8227 16.5853C21.116 16.3587 21.428 16.1747 21.7894 16.0813C22.4934 15.9 23.1494 16.16 23.5267 16.78C23.9587 17.4867 23.9534 18.18 23.4214 18.728C22.6067 19.572 21.6254 20.1813 20.536 20.6067C19.5054 21.0093 18.376 21.212 17.26 21.3453C17.428 21.5307 17.508 21.6213 17.6134 21.728C19.1294 23.2613 20.6534 24.7907 22.1654 26.3293C22.68 26.8547 22.788 27.504 22.504 28.1147C22.1934 28.7813 21.5 29.22 20.8187 29.1733C20.388 29.1427 20.052 28.9267 19.752 28.624C18.608 27.464 17.4427 26.3253 16.3214 25.144C15.9947 24.8 15.8374 24.8653 15.5494 25.164C14.3987 26.3573 13.2294 27.532 12.0507 28.7013C11.5227 29.2253 10.8934 29.32 10.28 29.0213C9.62935 28.7013 9.21335 28.0333 9.24668 27.36C9.26802 26.904 9.49068 26.5573 9.80135 26.2453C11.3027 24.736 12.7987 23.2227 14.296 21.712C14.3947 21.6107 14.488 21.504 14.632 21.348Z"/>
  <path d="M15.876 16.092C12.2334 16.0787 9.2467 13.0387 9.2667 9.364C9.28803 5.64933 12.2774 2.65733 15.956 2.66666C19.6414 2.676 22.6 5.71333 22.5827 9.46666C22.5627 13.1333 19.556 16.104 15.876 16.092ZM19.1867 9.372C19.1892 8.94261 19.1067 8.51696 18.9442 8.11953C18.7816 7.7221 18.5421 7.36072 18.2394 7.05617C17.9367 6.75161 17.5768 6.50988 17.1803 6.34487C16.7839 6.17986 16.3588 6.09483 15.9294 6.09466C15.4959 6.09424 15.0668 6.18019 14.6669 6.34749C14.2671 6.51479 13.9045 6.76008 13.6006 7.06904C13.2966 7.378 13.0572 7.74443 12.8964 8.14694C12.7356 8.54944 12.6566 8.97996 12.664 9.41333C12.6646 9.84289 12.75 10.2681 12.9155 10.6645C13.0811 11.0609 13.3233 11.4206 13.6284 11.723C13.9336 12.0254 14.2955 12.2645 14.6933 12.4264C15.0912 12.5883 15.5172 12.67 15.9467 12.6667C16.3763 12.6651 16.8012 12.5785 17.1971 12.4118C17.593 12.245 17.9519 12.0016 18.2532 11.6953C18.5544 11.3891 18.792 11.0263 18.9523 10.6277C19.1125 10.2292 19.1922 9.80285 19.1867 9.37333V9.372Z"/>
</svg>
