<svg width="114" height="28" xmlns="http://www.w3.org/2000/svg"><path d="M10.95 19.565c.422 0 .843-.071 1.264-.284.421-.142.772-.425 1.053-.709.351-.354.632-.78.913-1.276.21-.496.421-1.063.561-1.63.14-.567.211-1.205.281-1.843.07-.638.07-1.347.07-1.985 0-.78-.07-1.56-.14-2.34-.07-.779-.28-1.559-.491-2.268-.211-.708-.492-1.417-.843-1.984a6.967 6.967 0 00-1.193-1.56 5.333 5.333 0 00-1.334-.85c-.491-.213-.983-.284-1.544-.284-.421 0-.843.07-1.264.213-.42.141-.772.283-1.053.496-.842.638-1.474 1.56-1.825 2.764-.35 1.205-.491 2.552-.491 4.04 0 .71.07 1.418.14 2.198s.281 1.56.492 2.269c.21.709.49 1.417.912 2.126.351.638.842 1.205 1.334 1.701.421.355.912.638 1.404.851.561.213 1.123.355 1.755.355zm-.912 1.417c-1.755 0-3.229-.283-4.422-.78a9.46 9.46 0 01-3.089-2.055C1.615 17.154.913 16.02.562 14.744.14 13.468 0 12.264 0 11.058c0-1.205.21-2.48.632-3.686.421-1.276 1.123-2.34 2.176-3.26.842-.851 1.965-1.56 3.229-2.127 1.263-.496 2.738-.78 4.282-.78 1.614 0 3.018.284 4.212.78 1.193.496 2.246 1.205 3.018 2.056.843.85 1.404 1.913 1.825 3.048.422 1.134.632 2.41.632 3.686 0 1.134-.14 2.268-.421 3.331a8.577 8.577 0 01-1.404 2.907 9.219 9.219 0 01-3.65 2.977c-1.404.638-2.878.992-4.493.992zm12.215-1.559c.21-.071.35-.071.49-.142.141 0 .282-.07.492-.142.21-.07.351-.142.492-.354.07-.213.14-.496.21-.85V11.2c0-.213 0-.284-.07-.425a4.089 4.089 0 00-.28-.497c-.141-.212-.562-.425-1.124-.638 0-.07 0-.283.07-.496 0-.212.07-.354.14-.425.492-.07.984-.142 1.475-.213a8.05 8.05 0 001.404-.354l1.263-.425c.351-.142.702-.284.983-.426.07.071.14.142.14.213v1.701c0 .071 0 .071.07.071h.07c.703-.567 1.405-1.063 2.107-1.347.702-.354 1.334-.496 1.825-.496 1.404 0 2.457.567 3.159 1.701.35.497.561.993.632 1.63.14.639.14 1.277.14 1.986v5.67c0 .213.07.426.21.497.351.283.843.425 1.475.496.07.07.07.283 0 .496 0 .284-.07.425-.14.496-.211 0-.633 0-1.124-.07-.491 0-1.334-.072-2.387-.072h-3.369c0-.07-.07-.141-.07-.212v-.638c0-.071.07-.142.07-.142l.772-.213c.21-.07.351-.141.421-.283s.07-.355.14-.567c0-.213 0-.638.07-1.276v-3.828a6.79 6.79 0 00-.14-1.418c-.14-.638-.42-1.134-.912-1.418-.21-.141-.421-.212-.632-.283-.21-.07-.421-.07-.702-.07-.14-.001-.42-.001-.632.07-.28.07-.561.142-.772.284l-.21.212c-.07.142-.07.213-.07.284v7.16c0 .425.07.708.21.85.14.142.28.212.491.283.14.071.281.071.351.071.07 0 .211.071.492.071.07.071.07.213 0 .496 0 .284-.07.426-.07.567-.562 0-1.194-.07-1.755-.07h-4.142c-.491 0-.912.07-1.193.07-.07-.07-.07-.283-.07-.567-.07 0 0-.212 0-.283zM44.786 8.86c-.562 0-.983.355-1.264.993-.28.638-.491 1.56-.491 2.552 0 0 0 .07.07.142 0 .07.07.07.14.07h2.668c.28 0 .491-.07.632-.07.14-.071.21-.142.21-.284-.07-.992-.21-1.772-.561-2.41-.351-.709-.843-.992-1.404-.992zm5.896 7.87l.07.07c.07.07.07.07.07.142 0 .142 0 .354-.07.567-.07.212-.07.354-.14.425-.702.85-1.544 1.56-2.527 2.056-1.053.496-2.036.78-3.089.78a8.066 8.066 0 01-2.386-.355c-.702-.283-1.264-.638-1.685-1.063a5.857 5.857 0 01-1.404-2.268 9.44 9.44 0 01-.421-2.765c0-1.276.28-2.41.842-3.332.562-.921 1.264-1.7 2.036-2.197.561-.355 1.123-.567 1.755-.78.632-.213 1.263-.283 1.895-.283.842 0 1.615.141 2.176.496.562.283 1.053.709 1.474 1.134.351.425.632.921.843 1.418.21.496.35.992.35 1.417 0 .071.07.213.211.284.07.07.21.142.281.142v.425c0 .07 0 .213-.07.284 0 .07-.07.141-.07.141-.211.071-.632.142-1.264.213-.632.07-1.264.142-2.036.213-.772.07-1.544.141-2.316.141-.772.071-1.404.071-1.966.071-.07 0-.07.071-.07.142v.142c.07.425.14.85.351 1.276.21.425.492.85.843 1.205.701.709 1.684 1.063 2.878 1.063.631 0 1.263-.07 1.825-.283.491-.142 1.053-.497 1.614-.922zm3.018-1.986c.352 1.064.703 1.914 1.124 2.552.421.638.913 1.205 1.474 1.63.421.284.842.497 1.334.639.491.141.983.212 1.404.212.702 0 1.334-.212 1.825-.638.491-.425.772-.992.772-1.772 0-.354-.07-.709-.14-.992-.07-.284-.281-.638-.492-.922-.21-.354-.561-.638-1.053-.992-.42-.355-1.053-.71-1.755-1.205a78.066 78.066 0 00-1.825-1.205c-.561-.426-1.123-.851-1.544-1.347a8.053 8.053 0 01-1.053-1.63c-.28-.639-.351-1.347-.351-2.127 0-.922.14-1.701.491-2.41.351-.71.843-1.276 1.404-1.772.632-.497 1.264-.851 2.106-1.064a9.467 9.467 0 012.527-.354c.562 0 1.123 0 1.545.07.491.072.912.072 1.263.142.421.071.772.142 1.123.213.351.071.702.071 1.123.142-.07.567-.21 1.276-.28 1.985-.07.709-.14 1.56-.21 2.552-.071.07-.282.141-.563.141-.28 0-.42 0-.561-.07-.14-.922-.351-1.702-.562-2.198a2.817 2.817 0 00-.842-1.134c-.351-.284-.702-.425-1.053-.567a6.237 6.237 0 00-1.264-.142c-.842 0-1.474.284-1.895.78-.421.496-.702 1.134-.702 1.843 0 .638.14 1.205.492 1.701.35.425.772.922 1.404 1.347.631.425 1.193.78 1.684 1.063.492.284 1.053.638 1.685 1.063 1.123.71 1.965 1.49 2.457 2.198.561.78.772 1.701.772 2.764 0 .851-.14 1.56-.491 2.269-.351.709-.772 1.347-1.404 1.843-.632.567-1.404.992-2.317 1.276-.912.283-1.965.496-3.159.496-1.053 0-2.035-.142-2.878-.354-.842-.213-1.474-.426-1.895-.638a2.874 2.874 0 01-.28-.851c-.141-.425-.211-.921-.352-1.418-.07-.496-.21-1.063-.28-1.56-.07-.495-.141-.92-.141-1.133 0-.071.07-.071.21-.142.07-.071.211-.071.352-.142.14-.07.21-.07.35-.07.281-.072.422-.072.422-.072zM67.038 2.056c-.07 0-.07-.071-.07-.213v-.638c0-.07 0-.142.07-.142.562 0 1.193-.07 1.825-.141.632-.071 1.194-.213 1.755-.284.562-.142 1.053-.213 1.474-.354.421-.142.772-.213.983-.284.07 0 .14.07.21.213.07.141.07.283.07.354a.544.544 0 00-.14.355c-.07.141-.07.283-.14.496 0 .212-.07.496-.07.78v7.088c0 .142.07.142.14.071.632-.425 1.264-.78 1.966-1.134.632-.284 1.334-.496 1.965-.496 1.264 0 2.247.425 2.949 1.276.701.85 1.052 2.126 1.052 3.827v6.026c0 .141.07.212.211.283.14.071.351.213.632.284l.842.212c.07.071.07.213.07.497 0 .283-.07.496-.21.496-.21 0-.632 0-1.194-.071-.561 0-1.333-.07-2.386-.07h-1.825c-.562 0-1.053.07-1.474.07-.07-.07-.14-.284-.14-.567 0-.284.07-.425.14-.496.35-.071.561-.142.772-.213a.72.72 0 00.42-.354c.071-.142.071-.497.141-.922 0-.496.07-1.063.07-1.63v-1.843c0-.567 0-1.134-.07-1.63a4.5 4.5 0 00-.14-1.135 1.741 1.741 0 00-.772-1.276c-.421-.283-.913-.496-1.545-.496-.561 0-.982.07-1.404.284-.14.07-.21.141-.21.354v7.159c.07.426.07.71.14.993.07.212.21.425.492.496.14.07.28.07.42.142.141.07.281.07.562.142.07.07.14.283.14.496 0 .283-.07.425-.14.567-.491 0-.982 0-1.474-.071-.491 0-1.263-.07-2.176-.07-.983 0-1.685 0-2.176.07-.491 0-.913.07-1.264.07-.07-.07-.14-.283-.14-.566 0-.284.07-.426.14-.496.211-.071.422-.071.562-.142.14-.071.351-.071.491-.142a.852.852 0 00.492-.496c.07-.284.07-.638.14-1.205.07-.567.07-1.347.07-2.269V5.813c0-.71 0-1.276-.07-1.702 0-.425-.07-.708-.07-.992-.07-.213-.07-.354-.14-.496-.07-.142-.211-.213-.422-.355a1.312 1.312 0 00-.561-.141c-.492 0-.702 0-.983-.071zm23.516 6.876c-.28 0-.561.07-.842.283-.421.284-.702.78-.913 1.347-.21.638-.28 1.56-.28 2.694 0 2.126.28 3.757.842 4.82.561 1.063 1.263 1.56 2.106 1.56.42 0 .702-.142.912-.355.351-.354.632-.85.843-1.489.14-.709.28-1.63.28-2.764 0-1.843-.28-3.332-.772-4.466-.491-1.063-1.263-1.63-2.176-1.63zm.632-1.205c1.053 0 2.036.141 2.808.496.772.354 1.544.78 2.106 1.347.561.567.983 1.276 1.263 2.055.281.78.421 1.63.421 2.552 0 1.276-.28 2.41-.772 3.332-.491.921-1.193 1.63-2.035 2.197-.492.284-1.124.567-1.896.851-.772.213-1.544.354-2.246.354-1.193 0-2.176-.141-3.018-.496a6.503 6.503 0 01-2.106-1.418 4.537 4.537 0 01-1.194-2.126c-.28-.78-.42-1.701-.42-2.623 0-1.205.28-2.197.771-3.119.492-.921 1.194-1.63 2.036-2.197a7.731 7.731 0 011.895-.851c.772-.284 1.545-.354 2.387-.354zm15.443 2.41c-.21 0-.421 0-.702.07-.28.071-.491.142-.631.213-.071.071-.141.071-.211.213-.07.07-.07.213-.14.284v4.678c0 .567 0 1.063.07 1.347 0 .283.07.567.21.921.141.355.281.567.562.85.351.284.632.426.913.497.28.071.561.071.772.071.21 0 .491-.07.702-.142.28-.07.491-.283.702-.567.28-.354.491-.85.631-1.418.141-.637.211-1.275.211-2.126 0-.85-.07-1.56-.211-2.198a3.608 3.608 0 00-.772-1.56c-.351-.424-.702-.708-1.053-.85-.14-.142-.561-.283-1.053-.283zm-7.37 0c-.07-.071-.07-.284 0-.497.07-.212.07-.425.07-.496.35-.07.772-.141 1.334-.283.491-.142.982-.284 1.544-.426.491-.141 1.053-.354 1.474-.496.491-.142.842-.354 1.193-.496.071 0 .071 0 .141.07.07.072.14.143.14.214v1.63c0 .07 0 .07.07.07h.141c.632-.424 1.334-.779 2.035-1.133.702-.355 1.334-.567 1.966-.567.632 0 1.264.141 1.755.354.562.284.983.567 1.404 1.063.491.567.842 1.205 1.123 1.985.211.709.351 1.489.351 2.198 0 1.346-.211 2.41-.702 3.331a7.02 7.02 0 01-1.825 2.269 14.07 14.07 0 01-1.264.921l-1.474.638c-.491.142-.983.284-1.474.354-.491.071-.912.142-1.334.142h-.631c-.071 0-.071.071-.071.142v2.977c0 .355 0 .638.071.85 0 .355.07.639.21.851.141.213.351.355.702.426.211.07.421.07.772.142.351.07.632.07.983.141.07.071.07.284 0 .567-.07.284-.07.426-.14.497h-2.878c-.632 0-1.264 0-1.896.07-.631 0-1.263.072-1.895.142-.632.071-1.264.142-1.966.213-.07-.07-.14-.284-.14-.567 0-.284 0-.425.07-.567.281-.071.562-.071.843-.142.28-.07.491-.142.702-.213.28-.07.421-.283.491-.496.07-.213.07-.567.14-.921 0-.284.071-.638.071-1.135V12.9c0-.425 0-.78-.071-1.134 0-.213-.07-.425-.14-.638-.07-.142-.211-.283-.421-.425l-.632-.213c-.421-.283-.632-.354-.842-.354z" fill="#66753B"/></svg>